<?xml version="1.0" encoding="utf-8"?>
<svg width="772px" height="612px" viewBox="0 0 772 612" version="1.1" xmlns:xlink="http://www.w3.org/1999/xlink" xmlns="http://www.w3.org/2000/svg">
  <desc>Created with Lunacy</desc>
  <defs>
    <path d="M5.27422e-13 0L17.155 0L17.155 9.89163L0 9.89163L0 8.77939e-14L5.27422e-13 0Z" transform="translate(0.6684772 0.7683821)" id="path_1" />
    <clipPath id="mask_1">
      <use xlink:href="#path_1" />
    </clipPath>
  </defs>
  <g id="Illustration" transform="translate(0.5 0.5)">
    <g id="Truck" transform="translate(254 0)">
      <path d="M344.532 291.328L0 93.5133L163.155 0L502.273 196.269L344.532 291.328Z" transform="translate(14.03965 190.8828)" id="Fill-56" fill="#453560" fill-opacity="0.099999994" stroke="none" />
      <g id="Group-9" transform="translate(0 4.582543)">
        <path d="M131.252 0L131.252 177.926L0 256.579L0 78.6538L131.252 0Z" transform="translate(179.4051 103.1985)" id="Fill-63" fill="#A85A7D" stroke="none" />
        <path d="M131.252 0L0 78.653L178.757 181.73L310.009 103.077L131.252 0Z" transform="translate(0.6474559 0.1217319)" id="Fill-61" fill="#F995C2" stroke="none" />
        <path d="M0 177.926L178.757 281.002L178.757 103.077L0 0L0 177.926Z" transform="translate(0.6474559 78.77471)" id="Fill-67" fill="#E885AD" stroke="none" />
        <path d="M0 15.4688L178.876 119.416L178.876 103.947L0 0L0 15.4688Z" transform="translate(0.5296963 127.5409)" id="Fill-73" fill="#FFC281" stroke="none" />
        <path d="M48.6588 36.5711L33.8974 28.0595L33.8974 11.0346L14.7613 0L14.7613 17.0241L0 8.51321L0 30.5808L14.7613 39.0925L14.7613 56.1189L33.8974 67.1535L33.8974 50.1271L48.6588 58.6387L48.6588 36.5711Z" transform="translate(65.69561 154.101)" id="Fill-77" fill="#FFE6DB" stroke="none" />
        <path d="M38.1787 0L51.4477 7.65139L39.6617 14.4479L51.9109 21.5108L37.7674 29.6665L25.5182 22.6036L13.7322 29.3993L0.463152 21.7479L12.2492 14.9514L0 7.88847L13.1376 0.313531L25.3906 7.37415L38.1787 0Z" transform="translate(131.1981 73.53913)" id="Fill-148" fill="#FFE6DB" stroke="none" />
      </g>
      <g id="Group-8" transform="translate(178.75 139.3093)">
        <path d="M179.821 249.714C179.821 249.714 184.077 185.901 158.539 157.68C158.539 157.68 100.02 117.805 88.3135 104.916C88.3135 104.916 57.4563 34.3571 51.0704 29.4487C44.6876 24.5419 0 0 0 0L0 146.023L179.821 249.714Z" transform="translate(0.6554693 79.02682)" id="Fill-65" fill="#FFE6DB" stroke="none" />
        <path d="M56.9267 76.3934C56.9267 76.3934 32.4546 19.3254 29.2605 16.872C26.0718 14.4224 0 0 0 0L0 43.5676L56.9267 76.3934Z" transform="translate(18.74019 102.9505)" id="Fill-69" fill="#55BDDA" stroke="none" />
        <path d="M131.253 0L0 78.6538L0 78.6538C25.5352 106.872 21.2833 170.673 21.2826 170.687L152.535 92.0344C152.535 92.0344 156.79 28.2216 131.253 0" transform="translate(159.1937 158.0533)" id="Fill-87" fill="#F7DED5" stroke="none" />
        <path d="M131.252 0L0 78.653C6.38593 83.5614 37.2431 154.12 37.2431 154.12L168.496 75.4675C168.496 75.4675 137.639 4.90761 131.252 0" transform="translate(51.7261 29.82249)" id="Fill-89" fill="#FFEFE9" stroke="none" />
        <path d="M113.457 0L0 67.9898C5.51993 72.2318 32.1941 133.224 32.1941 133.224L145.651 65.236C145.651 65.236 118.977 4.2427 113.457 0" transform="translate(63.14856 40.2704)" id="Fill-93" fill="#7BE6FF" stroke="none" />
        <path d="M113.457 0L0 67.9898C5.51993 72.2318 32.1941 133.224 32.1941 133.224L145.651 65.236C145.651 65.236 118.977 4.2427 113.457 0" transform="translate(63.14856 40.2704)" id="Fill-91" fill="#7BE6FF" stroke="none" />
        <path d="M33.2882 66.3295C33.2882 66.3295 12.1517 17.9987 3.61552 4.38943L0 6.55635C5.52071 10.799 32.1948 71.7916 32.1948 71.7916L145.651 3.80253C145.651 3.80253 145.035 2.39395 143.975 0L33.2882 66.3295Z" transform="translate(63.14809 101.7034)" id="Fill-95" fill="#55BDDA" stroke="none" />
        <path d="M131.253 0L0 78.653C11.7064 91.5417 70.2243 131.417 70.2243 131.417L201.477 52.7635C201.477 52.7635 142.958 12.888 131.253 0" transform="translate(88.96923 105.29)" id="Fill-97" fill="#F7DED5" stroke="none" />
        <path d="M131.252 0L0 78.653C0 78.653 49.2271 105.92 51.0712 108.102L182.323 29.4487C182.323 29.4487 143.251 5.67831 131.252 0" transform="translate(0.6550827 0.3735307)" id="Fill-99" fill="#F7DED5" stroke="none" />
        <path d="M145.751 10.0847C145.751 10.0847 139.734 5.98489 131.188 0L0 78.7966L29.2551 117.132L160.443 38.3357C157.226 27.6486 152.551 17.601 145.751 10.0847" transform="translate(144.6312 147.8254)" id="Fill-101" fill="#FFAF9F" stroke="none" />
        <path d="M14.5627 10.0847C14.5627 10.0847 8.54632 5.98489 4.58696e-05 0C4.58696e-05 0 -0.217226 19.8567 29.2552 38.3357C26.0386 27.6486 21.3638 17.601 14.5627 10.0847" transform="translate(144.6311 226.6221)" id="Fill-103" fill="#FFC281" stroke="none" />
        <path d="M24.8849 14.4402C22.5189 12.6223 7.56507 4.21876 0 0L0 38.9504L49.8456 67.6925C43.3886 52.8021 27.4226 16.3893 24.8849 14.4402" transform="translate(23.11485 105.3826)" id="Fill-105" fill="#7BE6FF" stroke="none" />
      </g>
      <path d="M0 15.4688L310.279 194.385L310.279 178.916L0 0L0 15.4688Z" transform="translate(0.5296963 207.1823)" id="Fill-71" fill="#FFC281" stroke="none" />
      <path d="M0 15.4696L310.279 194.386L310.279 178.916L0 0L0 15.4696Z" transform="translate(0.5296963 233.129)" id="Fill-75" fill="#FFC281" stroke="none" />
      <g id="Group-6" transform="translate(32.08333 237.3757)">
        <path d="M0 23.7247C0 44.9135 14.892 70.6763 33.265 81.2707C51.6418 91.8667 66.5361 83.2809 66.5361 62.0921C66.5361 40.8994 51.6418 15.1343 33.265 4.53754C14.892 -6.05687 0 2.53279 0 23.7247" transform="translate(237.3666 137.3896)" id="Fill-79" fill="#82546C" stroke="none" />
        <path d="M0 23.7238C0 44.9126 14.8928 70.6754 33.2673 81.2706C51.6418 91.8666 66.5369 83.28 66.5369 62.0912C66.5369 40.8993 51.6418 15.1334 33.2673 4.53819C14.8928 -6.05699 0 2.5319 0 23.7238" transform="translate(0.3434452 0.7158319)" id="Fill-81" fill="#82546C" stroke="none" />
        <path d="M19.164 46.8135C8.58261 40.7112 0 25.8702 0 13.6649C0 1.45806 8.58261 -3.48816 19.164 2.61334C29.7453 8.7156 38.3272 23.5589 38.3272 35.7657C38.3272 47.971 29.7453 52.915 19.164 46.8135ZM275.35 172.44C275.35 160.233 266.768 145.39 256.185 139.287C245.606 133.187 237.021 138.131 237.021 150.338C237.021 162.543 245.606 177.386 256.185 183.487C266.768 189.59 275.35 184.646 275.35 172.44Z" transform="translate(14.447 18.90737)" id="Fill-83" fill="#995C7F" fill-rule="evenodd" stroke="none" />
        <path d="M9.84449 11.4742C9.84449 23.6795 18.4263 38.5212 29.0077 44.6227C30.8982 45.7124 32.7229 46.4437 34.448 46.8506C30.9484 50.1597 25.4053 50.406 19.1647 46.8074C8.58261 40.7059 0 25.8642 0 13.6588C0 3.63204 5.79288 -1.48948 13.7252 0.380126C11.2912 2.68218 9.84449 6.4654 9.84449 11.4742ZM256.186 183.481C262.428 187.08 267.972 186.834 271.471 183.525C269.745 183.118 267.92 182.386 266.029 181.296C255.449 175.196 246.865 160.353 246.865 148.148C246.865 143.139 248.312 139.356 250.747 137.054C242.815 135.184 237.021 140.305 237.021 150.333C237.021 162.537 245.606 177.381 256.186 183.481Z" transform="translate(14.44669 18.9132)" id="Fill-85" fill="#633B52" fill-rule="evenodd" stroke="none" />
      </g>
      <g id="Group-3" transform="translate(22 55.90702)">
        <path d="M0 12.3937L0 17.2983L21.7465 4.90374L21.7465 0L0 12.3937Z" transform="translate(22.05815 22.36424)" id="Fill-127" fill="#55BDDA" stroke="none" />
        <path d="M0 12.3937L21.7457 24.606L43.4922 12.2123L21.7457 0L0 12.3937Z" transform="translate(0.3124416 10.15168)" id="Fill-129" fill="#7BE6FF" stroke="none" />
        <path d="M0 0L0 4.72304L21.7457 17.1168L21.7457 12.2123L0 0Z" transform="translate(0.3124416 22.54541)" id="Fill-131" fill="#1D8CAA" stroke="none" />
        <path d="M14.6428 8.44351C11.2933 10.3749 5.86304 10.3749 2.51273 8.44351C-0.837578 6.51214 -0.837578 3.38069 2.51273 1.44854C5.86227 -0.482845 11.2933 -0.482845 14.6428 1.44854C17.9924 3.38069 17.9924 6.51214 14.6428 8.44351" transform="translate(13.2348 0.6630061)" id="Fill-133" fill="#FFC281" stroke="none" />
        <path d="M23.7411 16.6079L20.4109 0C20.5972 1.38927 19.7738 2.8156 17.9304 3.87821C14.5809 5.80959 9.14989 5.80959 5.80036 3.87821C3.96012 2.81714 3.1382 1.3939 3.31913 0.00617795L0.135833 16.0758C0.0902133 16.2519 0.0523261 16.4295 0.0306763 16.6071L0.0306763 16.6079C-0.206699 18.5199 0.93301 20.4783 3.46836 21.9402C8.10606 24.6145 15.6255 24.6145 20.2632 21.9402C22.7986 20.4783 23.9375 18.5199 23.7009 16.6079L23.7411 16.6079Z" transform="translate(9.946868 5.228238)" id="Fill-135" fill="#FFDCC0" stroke="none" />
      </g>
      <g id="Group-2" transform="translate(113.6667 0)">
        <path d="M0 12.3937L0 17.2983L21.7465 4.90374L21.7465 0L0 12.3937Z" transform="translate(22.32703 22.46919)" id="Fill-137" fill="#55BDDA" stroke="none" />
        <path d="M0 12.3937L21.7465 24.606L43.493 12.2123L21.7465 0L0 12.3937Z" transform="translate(0.5805441 10.25655)" id="Fill-139" fill="#7BE6FF" stroke="none" />
        <path d="M0 0L0 4.72304L21.7465 17.1168L21.7465 12.2123L0 0Z" transform="translate(0.5805441 22.65028)" id="Fill-141" fill="#1D8CAA" stroke="none" />
        <path d="M14.6428 8.44351C11.2933 10.3749 5.86227 10.3749 2.51273 8.44351C-0.837578 6.51214 -0.837578 3.38069 2.51273 1.44854C5.86227 -0.482845 11.2925 -0.482845 14.6428 1.44854C17.9924 3.38069 17.9924 6.51214 14.6428 8.44351" transform="translate(13.5036 0.7679573)" id="Fill-143" fill="#FFC281" stroke="none" />
        <path d="M23.7411 16.6079L20.4109 0C20.5965 1.38927 19.7738 2.8156 17.9305 3.87821C14.5802 5.81036 9.14991 5.81036 5.80037 3.87821C3.96014 2.81714 3.13744 1.3939 3.31915 0.00617795L0.135849 16.0758C0.0894563 16.2526 0.0523423 16.4295 0.0306925 16.6079L0.0299193 16.6079L0.0306925 16.6079C-0.206682 18.5199 0.932253 20.4783 3.4676 21.9402C8.10531 24.6145 15.6248 24.6145 20.2625 21.9402C22.7978 20.4783 23.9375 18.5199 23.7001 16.6079L23.7411 16.6079Z" transform="translate(10.21573 5.333112)" id="Fill-146" fill="#FFDCC0" stroke="none" />
        <g id="Group-145" transform="translate(12.83512 0)">
          <path d="M5.27422e-13 0L17.155 0L17.155 9.89163L0 9.89163L0 8.77939e-14L5.27422e-13 0Z" transform="translate(0.6684772 0.7683821)" id="Clip-144" fill="none" stroke="none" />
        </g>
      </g>
      <g id="Group-4" transform="translate(156.75 138.3928)">
        <path d="M0 12.3937L0 17.2983L21.7465 4.90452L21.7465 0L0 12.3937Z" transform="translate(21.88118 22.46742)" id="Fill-107" fill="#55BDDA" stroke="none" />
        <path d="M0 12.3937L21.7457 24.606L43.4922 12.2123L21.7457 0L0 12.3937Z" transform="translate(0.1353927 10.25517)" id="Fill-109" fill="#7BE6FF" stroke="none" />
        <path d="M0 0L0 4.72304L21.7457 17.1168L21.7457 12.2123L0 0Z" transform="translate(0.1353927 22.6489)" id="Fill-111" fill="#1D8CAA" stroke="none" />
        <path d="M14.6428 8.44332C11.2933 10.3747 5.86227 10.3747 2.51273 8.44332C-0.837578 6.51194 -0.837578 3.3805 2.51273 1.44911C5.86227 -0.483038 11.2933 -0.483038 14.6428 1.44911C17.9924 3.3805 17.9924 6.51194 14.6428 8.44332" transform="translate(13.05775 0.766381)" id="Fill-113" fill="#FFC281" stroke="none" />
        <path d="M23.7411 16.6079L20.4109 0C20.5965 1.38927 19.7738 2.8156 17.9304 3.87821C14.5809 5.81036 9.14989 5.81036 5.80036 3.87821C3.96012 2.81714 3.13743 1.3939 3.31913 0.00617795L0.135833 16.0758C0.0894406 16.2526 0.0523266 16.4295 0.0306768 16.6079L0.0306768 16.6079C-0.206698 18.5199 0.933011 20.4783 3.46759 21.9402C8.10606 24.6145 15.6255 24.6145 20.2632 21.9402C22.7978 20.4783 23.9375 18.5199 23.7001 16.6079L23.7411 16.6079Z" transform="translate(9.769897 5.33142)" id="Fill-115" fill="#FFDCC0" stroke="none" />
      </g>
      <g id="Group-5" transform="translate(248.4167 82.48577)">
        <path d="M0 12.3937L0 17.2983L21.7465 4.90452L21.7465 0L0 12.3937Z" transform="translate(22.14998 22.5723)" id="Fill-117" fill="#55BDDA" stroke="none" />
        <path d="M0 12.3937L21.7465 24.606L43.493 12.2123L21.7465 0L0 12.3937Z" transform="translate(0.4034952 10.36012)" id="Fill-119" fill="#7BE6FF" stroke="none" />
        <path d="M0 0L0 4.72304L21.7465 17.1168L21.7465 12.2123L0 0Z" transform="translate(0.4034952 22.75385)" id="Fill-121" fill="#1D8CAA" stroke="none" />
        <path d="M14.6428 8.44351C11.2925 10.3749 5.86227 10.3749 2.51273 8.44351C-0.837578 6.51214 -0.837578 3.37992 2.51273 1.44854C5.86227 -0.482845 11.2925 -0.482845 14.6421 1.44854C17.9924 3.37992 17.9924 6.51214 14.6428 8.44351" transform="translate(13.32663 0.8714482)" id="Fill-123" fill="#FFC281" stroke="none" />
        <path d="M23.7417 16.6079L20.4115 0C20.5971 1.38927 19.7736 2.8156 17.9303 3.87821C14.5807 5.81036 9.1505 5.81036 5.80096 3.87821C3.96073 2.81792 3.13803 1.3939 3.31974 0.00617795L0.136439 16.0758C0.0900466 16.2526 0.0529326 16.4295 0.0305096 16.6079L0.0305096 16.6079C-0.206092 18.5199 0.932844 20.4783 3.46819 21.9402C8.1059 24.6145 15.6253 24.6145 20.2631 21.9402C22.7984 20.4783 23.9373 18.5199 23.7007 16.6079L23.7417 16.6079Z" transform="translate(10.03809 5.436294)" id="Fill-125" fill="#FFDCC0" stroke="none" />
      </g>
    </g>
    <g id="Group-11" transform="translate(0 357)">
      <g id="Group-10" transform="translate(0 43.08333)">
        <path d="M0 107.137L74.1822 150.333L258.677 43.1966L184.494 0L0 107.137Z" transform="translate(18.34587 59.58333)" id="Fill-1" fill="#453560" fill-opacity="0.099999994" stroke="none" />
        <path d="M0.667028 36.9173C-0.164739 38.2674 -0.227412 39.7859 0.528529 40.3096C0.930098 40.5884 1.48177 40.5289 2.03499 40.2099C2.52322 39.9288 3.013 39.446 3.40219 38.8135L20.583 10.9307C20.9931 10.2657 21.2345 9.5234 21.25 8.87615C21.2647 8.22967 21.0534 7.73303 20.665 7.50209L8.02991 0L2.47757 3.2015C2.57119 3.36756 2.68803 3.51122 2.84587 3.60468L16.2787 11.581L0.667028 36.9173Z" transform="translate(39.61232 116.8434)" id="Fill-2" fill="#E0BDCD" stroke="none" />
        <path d="M2.61523 33.0157C0.971813 31.3767 0 28.7491 0 25.2973C0 16.6622 6.07306 6.16247 13.5644 1.84566C16.4821 0.163426 19.1833 -0.327033 21.3954 0.204362C22.6395 0.504044 23.729 1.12812 24.6141 2.04957L29.9552 5.1105L27.1009 10.2955C26.8378 18.2108 21.6778 27.4924 15.0739 32.1421L11.5295 38.5799L5.1144 34.5759C4.17044 34.2523 3.32939 33.7286 2.61523 33.0157L2.61523 33.0157Z" transform="translate(28.0827 137.2285)" id="Fill-4" fill="#D8B4C6" stroke="none" />
        <path d="M0 25.3017C0 33.9369 6.07306 37.4365 13.5636 33.1189C21.0549 28.8014 27.128 18.3017 27.128 9.66651C27.128 1.03211 21.0549 -2.4683 13.5636 1.84929C6.07306 6.16687 0 16.6666 0 25.3017" transform="translate(35.91423 141.9149)" id="Fill-6" fill="#F2D1CF" stroke="none" />
        <path d="M0 14.4054C0 19.3216 3.45783 21.3144 7.72267 18.8567C11.9883 16.3982 15.4453 10.42 15.4453 5.50381C15.4453 0.587632 11.9883 -1.4051 7.72267 1.0526C3.45783 3.51108 0 9.48927 0 14.4054" transform="translate(41.7554 149.4444)" id="Fill-8" fill="#E0BDCD" stroke="none" />
        <path d="M2.03534 41.7089C2.52357 41.4278 3.01335 40.9443 3.40254 40.3117L20.5834 12.4297C20.9934 11.7639 21.2341 11.0224 21.2495 10.3751C21.265 9.72867 21.0538 9.23203 20.6646 9.00109L5.74387 0.141161C4.95543 -0.326127 3.66793 0.404541 2.86711 1.77474C2.06629 3.14493 2.05701 4.63485 2.84622 5.10368L16.2791 13.08L0.666604 38.4163C-0.165162 39.7656 -0.227061 41.2849 0.528879 41.8086C0.929675 42.0874 1.48212 42.0279 2.03534 41.7089" transform="translate(47.4435 120.035)" id="Fill-10" fill="#FFE6DB" stroke="none" />
        <path d="M74.3963 52.6838L74.3963 42.5201L0 0L0 10.1629L74.3963 52.6838Z" transform="translate(182.4673 18.19387)" id="Fill-12" fill="#10768E" stroke="none" />
        <path d="M0.667028 36.9173C-0.164739 38.2674 -0.227412 39.7859 0.528529 40.3096C0.930098 40.5884 1.48177 40.5289 2.03499 40.2099C2.52322 39.9288 3.013 39.446 3.40219 38.8135L20.583 10.9307C20.9931 10.2657 21.2345 9.5234 21.25 8.87615C21.2647 8.22967 21.0534 7.73303 20.665 7.50209L8.02991 0L2.47757 3.2015C2.57119 3.36756 2.68803 3.51122 2.84587 3.60468L16.2787 11.581L0.667028 36.9173Z" transform="translate(96.32861 148.8348)" id="Fill-14" fill="#E0BDCD" stroke="none" />
        <path d="M16.2075 11.0334L1.51814 3.77769C1.32238 3.68115 1.17305 3.52204 1.06628 3.32276L6.82675 0L20.6 6.80232C21.0179 7.00854 21.2531 7.50055 21.2507 8.15861C21.2469 8.81745 21.0047 9.5821 20.583 10.2664L3.40219 38.1484C3.013 38.7818 2.52322 39.2645 2.03577 39.5457C1.48177 39.8647 0.930098 39.9241 0.528529 39.6453C-0.227412 39.1216 -0.164739 37.6024 0.667028 36.253L16.2075 11.0334Z" transform="translate(217.5377 79.64207)" id="Fill-16" fill="#E0BDCD" stroke="none" />
        <path d="M181.684 0L0 104.754L0 114.683L181.684 9.92967L181.684 0Z" transform="translate(1.17461 18.42134)" id="Fill-18" fill="#1D8CAA" stroke="none" />
        <path d="M0 4.69064L0 28.1608L9.0357 23.4702L9.0357 0L0 4.69064Z" transform="translate(236.3823 49.91059)" id="Fill-20" fill="#FFE6DB" stroke="none" />
        <path d="M0 4.69064L0 28.1601L8.13197 23.4694L8.13197 0L0 4.69064Z" transform="translate(85.94343 136.6845)" id="Fill-22" fill="#FFE6DB" stroke="none" />
        <path d="M71.1041 154.369L267.436 40.98L196.332 0L0 113.389L71.1041 154.369Z" transform="translate(7.737368E-05 0.6904325)" id="Fill-24" fill="#FFC281" stroke="none" />
        <path d="M71.1041 44.2564L71.1041 40.98L0 0L0 3.27642L71.1041 44.2564Z" transform="translate(7.737368E-05 114.0793)" id="Fill-26" fill="#FFDCC0" stroke="none" />
        <path d="M196.332 0L0 113.389L0 116.665L196.332 3.27642L196.332 0Z" transform="translate(71.10424 41.67034)" id="Fill-28" fill="#E2A66F" stroke="none" />
        <path d="M182.063 0L0 104.754L0 114.683L182.063 9.92967L182.063 0Z" transform="translate(75.10106 60.92878)" id="Fill-30" fill="#1EB59C" stroke="none" />
        <path d="M58.3251 135.503L235.11 33.6146L176.785 0L0 101.888L58.3251 135.503Z" transform="translate(14.79199 5.568917)" id="Fill-32" fill="#5FEDCB" stroke="none" />
        <path d="M58.3251 41.4334L58.3251 33.6154L0 0L0 7.81877L58.3251 41.4334Z" transform="translate(14.79199 107.4562)" id="Fill-34" fill="#43DCBC" stroke="none" />
        <path d="M74.0048 52.6838L74.0048 42.5201L0 0L0 10.1629L74.0048 52.6838Z" transform="translate(1.174687 123.0919)" id="Fill-36" fill="#43DCBC" stroke="none" />
        <path d="M176.785 0L0 101.888L0 109.706L176.785 7.818L176.785 0Z" transform="translate(73.11735 39.18383)" id="Fill-38" fill="#1EB59C" stroke="none" />
        <path d="M2.61523 33.0157C0.971813 31.3767 0 28.7491 0 25.2973C0 16.6622 6.07306 6.16247 13.5636 1.84566C16.4821 0.163426 19.1825 -0.327033 21.3946 0.204362C22.6395 0.504044 23.7282 1.12812 24.6133 2.04957L29.9552 5.1105L27.1009 10.2955C26.8371 18.2108 21.6778 27.4924 15.0732 32.1421L11.5295 38.5799L5.1144 34.5759C4.17044 34.2523 3.32939 33.7286 2.61523 33.0157Z" transform="translate(84.79939 169.2199)" id="Fill-40" fill="#D8B4C6" stroke="none" />
        <path d="M0 25.3017C0 33.9369 6.07306 37.4365 13.5636 33.1189C21.0549 28.8014 27.128 18.3017 27.128 9.66651C27.128 1.03211 21.0549 -2.4683 13.5636 1.84929C6.07306 6.16687 0 16.6666 0 25.3017" transform="translate(92.63052 173.9062)" id="Fill-42" fill="#F2D1CF" stroke="none" />
        <path d="M0 14.4054C0 19.3216 3.45783 21.3144 7.72267 18.8567C11.9883 16.3982 15.4453 10.42 15.4453 5.50381C15.4453 0.587632 11.9883 -1.4051 7.72267 1.0526C3.45783 3.51108 0 9.48927 0 14.4054" transform="translate(98.47169 181.4358)" id="Fill-44" fill="#E0BDCD" stroke="none" />
        <path d="M2.03534 41.7089C2.52357 41.4278 3.01335 40.9443 3.40254 40.3117L20.5834 12.4297C20.9934 11.7639 21.2341 11.0224 21.2495 10.3751C21.265 9.72867 21.0538 9.23203 20.6646 9.00109L5.74387 0.141161C4.95543 -0.326127 3.66793 0.404541 2.86711 1.77474C2.06629 3.14493 2.05701 4.63485 2.84622 5.10368L16.2791 13.08L0.666604 38.4163C-0.165162 39.7656 -0.227061 41.2849 0.528879 41.8086C0.929675 42.0874 1.48212 42.0279 2.03534 41.7089" transform="translate(104.1597 152.0264)" id="Fill-46" fill="#FFE6DB" stroke="none" />
        <path d="M2.61523 33.0154C0.971813 31.3764 0 28.7488 0 25.297C0 16.6626 6.07306 6.16216 13.5644 1.84534C16.4821 0.163106 19.1825 -0.327353 21.3954 0.204815C22.6395 0.503724 23.729 1.1278 24.6141 2.04925L29.9552 5.11095L27.1009 10.2951C26.8378 18.2105 21.6778 27.4921 15.0739 32.1426L11.5295 38.5796L5.1144 34.5756C4.17044 34.2519 3.32939 33.7283 2.61523 33.0154L2.61523 33.0154Z" transform="translate(206.3788 98.52477)" id="Fill-48" fill="#D8B4C6" stroke="none" />
        <path d="M0 25.3017C0 33.9369 6.07306 37.4365 13.5644 33.1189C21.0549 28.8014 27.1288 18.3017 27.1288 9.66651C27.1288 1.03211 21.0549 -2.4683 13.5644 1.84929C6.07306 6.16687 0 16.6666 0 25.3017" transform="translate(214.7071 103.5491)" id="Fill-50" fill="#F2D1CF" stroke="none" />
        <path d="M0 14.4054C0 19.3216 3.45783 21.3144 7.72267 18.8567C11.9883 16.3982 15.4453 10.42 15.4453 5.50381C15.4453 0.587632 11.9883 -1.4051 7.72267 1.0526C3.45783 3.51108 0 9.48927 0 14.4054" transform="translate(220.5483 111.0786)" id="Fill-52" fill="#E0BDCD" stroke="none" />
        <path d="M0.528529 41.0057C-0.227412 40.482 -0.164739 38.9627 0.667028 37.6134L16.2075 12.3938L1.51814 5.13882C0.694109 4.73255 0.646137 3.27585 1.41136 1.88635C2.17504 0.49684 3.46331 -0.300253 4.28657 0.106017L20.5993 8.16268C21.0171 8.3689 21.2531 8.8609 21.25 9.51974C21.2469 10.1778 21.0055 10.9425 20.583 11.6268L3.40219 39.5088C3.01222 40.1414 2.52322 40.6249 2.03499 40.906C1.481 41.225 0.930099 41.2845 0.528529 41.0057" transform="translate(225.369 82.97212)" id="Fill-54" fill="#FFE6DB" stroke="none" />
      </g>
      <g id="Group-7" transform="translate(270.6015 0)">
        <path d="M25.5126 0L71.5489 26.8199L46.0363 41.25L0 14.462L25.5126 0Z" transform="translate(23.84962 175.0833)" id="Fill-3" fill="#EDEBF0" stroke="none" />
        <path d="M0 0L0.927373 9.34677L4.29267 1.55739L0 0Z" transform="translate(35.06479 20.47171)" id="Stroke-63" fill="none" stroke="#715C93" stroke-width="1" />
        <path d="M33.3458 0.780738C30.6012 8.06293 29.9633 15.9923 30.5114 23.7093C30.8246 28.1201 32.0783 58.339 31.8124 62.7685C31.571 66.7739 28.3484 68.5593 26.8232 71.9427C25.3811 75.1413 25.7522 78.8936 25.7653 82.3038C25.7726 84.2903 25.7938 86.3915 25.1854 88.3087C24.2466 91.2688 21.8454 91.2305 19.2598 90.4278C13.5357 88.6498 5.4267 84.112 0.31514 89.6707C-0.689718 90.7641 0.941545 92.4012 1.95048 91.303C4.93325 88.0596 9.87434 89.4932 13.5015 90.751C16.6106 91.8297 20.5257 94.1939 23.9309 93.0248C30.9494 90.6159 26.8093 78.3847 28.7676 73.2998C29.9691 70.1777 33.0497 68.3443 33.8335 64.956C34.7584 60.9506 33.5856 30.9361 33.1264 26.9429C32.1427 18.3801 32.5114 9.52425 35.5749 1.39458C36.1002 0.00245154 33.8653 -0.59836 33.3458 0.780738" transform="translate(0.337096 57.61382)" id="Fill-65" fill="#E5CAD8" stroke="none" />
        <path d="M16.3901 5.86181L7.16043 0.491958C6.105 -0.11618 5.10585 -0.136533 4.3726 0.299015L0 2.59561L3.17933 9.52692L3.17933 15.8281C3.17933 21.2134 7.07479 27.4316 11.7475 30.1247L11.8691 30.0954C12.1994 30.285 12.5224 30.4462 12.8397 30.592L13.8347 32.7591L16.8232 31.1675C17.4235 31.0153 17.9545 30.7336 18.4064 30.3241L18.4422 30.3046L18.4422 30.2899C19.4708 29.3309 20.0768 27.7173 20.0768 25.5013L20.0768 12.4878C20.0768 10.0683 18.4887 7.07158 16.3901 5.86181" transform="translate(26.01373 25.29588)" id="Fill-67" fill="#715C93" stroke="none" />
        <path d="M8.38958 30.0952L8.41732 30.1237C3.74538 27.4323 0 21.2141 0 15.8288L0 2.81447C0 0.395757 1.83517 -0.717942 3.93379 0.492636L12.9327 5.86168C15.0329 7.07225 16.3885 10.0682 16.3885 12.4877L16.3885 25.5012C16.3885 30.8873 13.0623 32.7883 8.38958 30.0952" transform="translate(25.31 27.28008)" id="Fill-69" fill="#A85A7D" stroke="none" />
        <path d="M5.99163 20.8057L5.91496 20.8252C2.68506 18.9641 0 14.6657 0 10.9427L0 1.94604C0 0.273048 1.27239 -0.49547 2.72339 0.339804L9.13099 4.05295C10.582 4.88904 11.7068 6.96013 11.7068 8.63312L11.7068 17.6298C11.7068 21.3527 9.22153 22.6667 5.99163 20.8057" transform="translate(27.65053 32.25821)" id="Fill-71" fill="#E0BDCD" stroke="none" />
        <path d="M9.39526 7.68566C9.39526 5.06179 7.5503 1.87293 5.27387 0.561399C2.99826 -0.749314 1.15412 0.313097 1.15412 2.93615C1.15412 3.21213 1.17859 3.49626 1.21774 3.7812L0 4.40073L4.2111 13.1866L8.35288 10.2338C8.99968 9.76814 9.39526 8.89542 9.39526 7.68566" transform="translate(65.30408 202.0414)" id="Fill-73" fill="#A85A7D" stroke="none" />
        <path d="M8.24114 7.68566C8.24114 10.3087 6.39537 11.3711 4.11975 10.0604C1.84414 8.74888 0 5.55921 0 2.93615C0 0.313097 1.84414 -0.749314 4.11975 0.561399C6.39537 1.87293 8.24114 5.0626 8.24114 7.68566" transform="translate(62.36095 204.9623)" id="Fill-75" fill="#E885AD" stroke="none" />
        <path d="M9.39526 7.68566C9.39526 5.0626 7.54948 1.87293 5.27387 0.561399C2.99826 -0.749314 1.15412 0.313097 1.15412 2.93615C1.15412 3.21213 1.17859 3.49626 1.21774 3.7812L0 4.40073L4.2111 13.1866L8.35288 10.2346C8.99968 9.76814 9.39526 8.89542 9.39526 7.68566" transform="translate(26.67235 179.8403)" id="Fill-77" fill="#A85A7D" stroke="none" />
        <path d="M8.24114 7.68536C8.24114 10.3084 6.39537 11.3716 4.11975 10.0601C1.84414 8.74859 0 5.55973 0 2.93586C0 0.312806 1.84414 -0.749604 4.11975 0.561923C6.39537 1.87264 8.24114 5.06231 8.24114 7.68536" transform="translate(23.72914 182.7615)" id="Fill-79" fill="#E885AD" stroke="none" />
        <path d="M44.7692 33.2482L50.247 29.9673L57.2068 33.9776L57.2068 25.7999L12.4376 0L0 7.44908L22.385 28.0159L23.1207 172.063L12.4376 165.907L0 173.356L44.7692 199.154L50.247 195.874L57.2068 199.885L57.2068 191.706L38.3388 180.833L38.3388 31.9138L44.7692 33.2482Z" transform="translate(24.57601 0.2445579)" id="Fill-81" fill="#E0BDCD" stroke="none" />
        <path d="M44.7692 33.9776L44.7692 25.7991L0 0L0 8.17934L18.8778 19.0574L18.8778 176.785L0 165.907L0 174.086L44.7692 199.885L44.7692 191.705L25.9012 180.833L25.9012 23.1052L44.7692 33.9776Z" transform="translate(24.57601 7.693561)" id="Fill-83" fill="#FFE6DB" stroke="none" />
        <path d="M0 7.44827L12.4376 0L12.4376 8.37717L0 15.8254L0 7.44827Z" transform="translate(69.34521 26.04444)" id="Fill-85" fill="#F2D1CF" stroke="none" />
        <path d="M57.2068 25.7991L44.7692 33.2473L0 7.44827L12.4376 0L57.2068 25.7991Z" transform="translate(24.57601 0.2450464)" id="Fill-87" fill="#ECECEC" stroke="none" />
        <path d="M0 7.44827L12.4376 0L12.4376 8.17852L0 15.6276L0 7.44827Z" transform="translate(69.34521 191.9506)" id="Fill-89" fill="#F2D1CF" stroke="none" />
      </g>
    </g>
  </g>
</svg>